<svg id="visual" viewBox="0 0 1920 1080" width="1920" height="1080" xmlns="http://www.w3.org/2000/svg" xmlns:xlink="http://www.w3.org/1999/xlink" version="1.1"><rect x="0" y="0" width="1920" height="1080" fill="#0a1325"></rect><defs><linearGradient id="grad1_0" x1="43.8%" y1="100%" x2="100%" y2="0%"><stop offset="14.444444444444446%" stop-color="#212e52" stop-opacity="1"></stop><stop offset="85.55555555555554%" stop-color="#212e52" stop-opacity="1"></stop></linearGradient></defs><defs><linearGradient id="grad1_1" x1="43.8%" y1="100%" x2="100%" y2="0%"><stop offset="14.444444444444446%" stop-color="#212e52" stop-opacity="1"></stop><stop offset="85.55555555555554%" stop-color="#1c2949" stop-opacity="1"></stop></linearGradient></defs><defs><linearGradient id="grad1_2" x1="43.8%" y1="100%" x2="100%" y2="0%"><stop offset="14.444444444444446%" stop-color="#17233f" stop-opacity="1"></stop><stop offset="85.55555555555554%" stop-color="#1c2949" stop-opacity="1"></stop></linearGradient></defs><defs><linearGradient id="grad1_3" x1="43.8%" y1="100%" x2="100%" y2="0%"><stop offset="14.444444444444446%" stop-color="#17233f" stop-opacity="1"></stop><stop offset="85.55555555555554%" stop-color="#121e36" stop-opacity="1"></stop></linearGradient></defs><defs><linearGradient id="grad1_4" x1="43.8%" y1="100%" x2="100%" y2="0%"><stop offset="14.444444444444446%" stop-color="#0e192e" stop-opacity="1"></stop><stop offset="85.55555555555554%" stop-color="#121e36" stop-opacity="1"></stop></linearGradient></defs><defs><linearGradient id="grad1_5" x1="43.8%" y1="100%" x2="100%" y2="0%"><stop offset="14.444444444444446%" stop-color="#0e192e" stop-opacity="1"></stop><stop offset="85.55555555555554%" stop-color="#0a1325" stop-opacity="1"></stop></linearGradient></defs><defs><linearGradient id="grad2_0" x1="0%" y1="100%" x2="56.3%" y2="0%"><stop offset="14.444444444444446%" stop-color="#212e52" stop-opacity="1"></stop><stop offset="85.55555555555554%" stop-color="#212e52" stop-opacity="1"></stop></linearGradient></defs><defs><linearGradient id="grad2_1" x1="0%" y1="100%" x2="56.3%" y2="0%"><stop offset="14.444444444444446%" stop-color="#1c2949" stop-opacity="1"></stop><stop offset="85.55555555555554%" stop-color="#212e52" stop-opacity="1"></stop></linearGradient></defs><defs><linearGradient id="grad2_2" x1="0%" y1="100%" x2="56.3%" y2="0%"><stop offset="14.444444444444446%" stop-color="#1c2949" stop-opacity="1"></stop><stop offset="85.55555555555554%" stop-color="#17233f" stop-opacity="1"></stop></linearGradient></defs><defs><linearGradient id="grad2_3" x1="0%" y1="100%" x2="56.3%" y2="0%"><stop offset="14.444444444444446%" stop-color="#121e36" stop-opacity="1"></stop><stop offset="85.55555555555554%" stop-color="#17233f" stop-opacity="1"></stop></linearGradient></defs><defs><linearGradient id="grad2_4" x1="0%" y1="100%" x2="56.3%" y2="0%"><stop offset="14.444444444444446%" stop-color="#121e36" stop-opacity="1"></stop><stop offset="85.55555555555554%" stop-color="#0e192e" stop-opacity="1"></stop></linearGradient></defs><defs><linearGradient id="grad2_5" x1="0%" y1="100%" x2="56.3%" y2="0%"><stop offset="14.444444444444446%" stop-color="#0a1325" stop-opacity="1"></stop><stop offset="85.55555555555554%" stop-color="#0e192e" stop-opacity="1"></stop></linearGradient></defs><g transform="translate(1920, 1080)"><path d="M-1026 0C-1001.5 -127.4 -977.1 -254.9 -934 -386.9C-891 -518.9 -829.5 -655.5 -725.5 -725.5C-621.5 -795.5 -475.1 -799 -347.1 -838C-219.1 -877 -109.6 -951.5 0 -1026L0 0Z" fill="#0c1629"></path><path d="M-855 0C-834.6 -106.2 -814.2 -212.4 -778.4 -322.4C-742.5 -432.4 -691.2 -546.2 -604.6 -604.6C-517.9 -662.9 -395.9 -665.8 -289.2 -698.3C-182.6 -730.8 -91.3 -792.9 0 -855L0 0Z" fill="#101b32"></path><path d="M-684 0C-667.7 -85 -651.4 -169.9 -622.7 -257.9C-594 -345.9 -553 -437 -483.7 -483.7C-414.3 -530.3 -316.7 -532.6 -231.4 -558.6C-146.1 -584.6 -73 -634.3 0 -684L0 0Z" fill="#14213b"></path><path d="M-513 0C-500.8 -63.7 -488.5 -127.4 -467 -193.4C-445.5 -259.5 -414.7 -327.7 -362.7 -362.7C-310.8 -397.8 -237.5 -399.5 -173.5 -419C-109.6 -438.5 -54.8 -475.7 0 -513L0 0Z" fill="#192644"></path><path d="M-342 0C-333.8 -42.5 -325.7 -85 -311.3 -129C-297 -173 -276.5 -218.5 -241.8 -241.8C-207.2 -265.2 -158.4 -266.3 -115.7 -279.3C-73 -292.3 -36.5 -317.2 0 -342L0 0Z" fill="#1e2b4d"></path><path d="M-171 0C-166.9 -21.2 -162.8 -42.5 -155.7 -64.5C-148.5 -86.5 -138.2 -109.2 -120.9 -120.9C-103.6 -132.6 -79.2 -133.2 -57.8 -139.7C-36.5 -146.2 -18.3 -158.6 0 -171L0 0Z" fill="#212e52"></path></g><g transform="translate(0, 0)"><path d="M1026 0C939.5 109.4 852.9 218.8 801 331.8C749.1 444.7 731.8 561.2 672.5 672.5C613.1 783.7 511.7 889.8 392.6 947.9C273.5 1006 136.8 1016 0 1026L0 0Z" fill="#0c1629"></path><path d="M855 0C782.9 91.2 710.8 182.4 667.5 276.5C624.2 370.6 609.8 467.7 560.4 560.4C510.9 653.1 426.4 741.5 327.2 789.9C228 838.3 114 846.7 0 855L0 0Z" fill="#101b32"></path><path d="M684 0C626.3 72.9 568.6 145.9 534 221.2C499.4 296.5 487.9 374.1 448.3 448.3C408.7 522.5 341.1 593.2 261.8 631.9C182.4 670.6 91.2 677.3 0 684L0 0Z" fill="#14213b"></path><path d="M513 0C469.7 54.7 426.5 109.4 400.5 165.9C374.5 222.4 365.9 280.6 336.2 336.2C306.6 391.9 255.9 444.9 196.3 474C136.8 503 68.4 508 0 513L0 0Z" fill="#192644"></path><path d="M342 0C313.2 36.5 284.3 72.9 267 110.6C249.7 148.2 243.9 187.1 224.2 224.2C204.4 261.2 170.6 296.6 130.9 316C91.2 335.3 45.6 338.7 0 342L0 0Z" fill="#1e2b4d"></path><path d="M171 0C156.6 18.2 142.2 36.5 133.5 55.3C124.8 74.1 122 93.5 112.1 112.1C102.2 130.6 85.3 148.3 65.4 158C45.6 167.7 22.8 169.3 0 171L0 0Z" fill="#212e52"></path></g></svg>